STARTFONT 2.1
COMMENT
COMMENT Converted from OpenType font "WeirdScienceNbpRegular-qmBr.ttf" by "otf2bdf 3.0".
COMMENT
FONT -FreeType-Weird Science NBP-Medium-R-Normal--19-140-100-100-P-120-ISO10646-1
SIZE 14 100 100
FONTBOUNDINGBOX 23 26 -1 -2
STARTPROPERTIES 19
FOUNDRY "FreeType"
FAMILY_NAME "Weird Science NBP"
WEIGHT_NAME "Medium"
SLANT "R"
SETWIDTH_NAME "Normal"
ADD_STYLE_NAME ""
PIXEL_SIZE 19
POINT_SIZE 140
RESOLUTION_X 100
RESOLUTION_Y 100
SPACING "P"
AVERAGE_WIDTH 120
CHARSET_REGISTRY "ISO10646"
CHARSET_ENCODING "1"
FONT_ASCENT 23
FONT_DESCENT 2
COPYRIGHT "Copyright Nate Halley 2012"
_OTF_FONTFILE "WeirdScienceNbpRegular-qmBr.ttf"
_OTF_PSNAME "Weird-Science-NBP"
ENDPROPERTIES
CHARS 92
STARTCHAR 0020
ENCODING 32
SWIDTH 360 0
DWIDTH 7 0
BBX 0 0 0 0
BITMAP
ENDCHAR
STARTCHAR 0021
ENCODING 33
SWIDTH 257 0
DWIDTH 5 0
BBX 2 14 0 0
BITMAP
C0
C0
C0
C0
C0
C0
C0
C0
C0
00
00
00
C0
C0
ENDCHAR
STARTCHAR 0022
ENCODING 34
SWIDTH 514 0
DWIDTH 10 0
BBX 7 5 0 9
BITMAP
C6
C6
C6
C6
C6
ENDCHAR
STARTCHAR 0023
ENCODING 35
SWIDTH 1234 0
DWIDTH 24 0
BBX 22 14 0 0
BITMAP
00E030
00C070
01C000
F9BFFC
0380C0
0301C0
070180
060380
0E0300
FFF77C
000600
000E00
380C00
301C00
ENDCHAR
STARTCHAR 0024
ENCODING 36
SWIDTH 771 0
DWIDTH 15 0
BBX 12 17 0 0
BITMAP
0600
0600
0600
7FF0
FFF0
C600
C600
C200
FFF0
7FF0
0630
0630
FFF0
FFF0
0600
0600
0600
ENDCHAR
STARTCHAR 0025
ENCODING 37
SWIDTH 720 0
DWIDTH 14 0
BBX 12 14 0 2
BITMAP
0600
0600
7600
8E00
8E00
7600
0600
06E0
0710
0710
06E0
0600
0600
0600
ENDCHAR
STARTCHAR 0027
ENCODING 39
SWIDTH 257 0
DWIDTH 5 0
BBX 2 5 0 9
BITMAP
80
C0
C0
C0
C0
ENDCHAR
STARTCHAR 0028
ENCODING 40
SWIDTH 360 0
DWIDTH 7 0
BBX 5 17 0 7
BITMAP
70
F8
C0
C0
C0
C0
C0
C0
C0
C0
C0
C0
C0
C0
C0
F8
70
ENDCHAR
STARTCHAR 0029
ENCODING 41
SWIDTH 360 0
DWIDTH 7 0
BBX 4 17 0 7
BITMAP
60
F0
30
30
30
30
30
30
30
30
30
30
30
30
30
F0
E0
ENDCHAR
STARTCHAR 002A
ENCODING 42
SWIDTH 514 0
DWIDTH 10 0
BBX 8 7 0 17
BITMAP
18
18
DF
EF
10
18
18
ENDCHAR
STARTCHAR 002B
ENCODING 43
SWIDTH 720 0
DWIDTH 14 0
BBX 12 12 0 0
BITMAP
0600
0600
0600
0600
0600
FFF0
FFF0
0600
0600
0600
0600
0600
ENDCHAR
STARTCHAR 002C
ENCODING 44
SWIDTH 360 0
DWIDTH 7 0
BBX 4 5 0 0
BITMAP
E0
F0
30
30
20
ENDCHAR
STARTCHAR 002D
ENCODING 45
SWIDTH 720 0
DWIDTH 14 0
BBX 12 2 0 5
BITMAP
FFF0
FFF0
ENDCHAR
STARTCHAR 002E
ENCODING 46
SWIDTH 360 0
DWIDTH 7 0
BBX 5 5 0 0
BITMAP
70
F8
F8
F8
70
ENDCHAR
STARTCHAR 002F
ENCODING 47
SWIDTH 874 0
DWIDTH 17 0
BBX 14 14 0 0
BITMAP
000C
001C
007C
00F8
01F0
03E0
07C0
0F80
1F00
3E00
7C00
F800
F000
6000
ENDCHAR
STARTCHAR 0030
ENCODING 48
SWIDTH 874 0
DWIDTH 17 0
BBX 14 12 0 0
BITMAP
7FF8
FFFC
C00C
C00C
C00C
C00C
C00C
C00C
C00C
C00C
FFFC
7FF8
ENDCHAR
STARTCHAR 0031
ENCODING 49
SWIDTH 874 0
DWIDTH 17 0
BBX 15 12 0 0
BITMAP
1F80
1FC0
00C0
00C0
00C0
00C0
00C0
00C0
00C0
00C0
FFFE
FFFE
ENDCHAR
STARTCHAR 0032
ENCODING 50
SWIDTH 874 0
DWIDTH 17 0
BBX 15 12 0 0
BITMAP
FFE0
FFF0
0030
0030
0030
0FF0
1FE0
3E00
7C00
F800
FFFE
7FFE
ENDCHAR
STARTCHAR 0033
ENCODING 51
SWIDTH 874 0
DWIDTH 17 0
BBX 14 12 0 0
BITMAP
1FF8
3FFC
000C
000C
000C
07FC
07FC
000C
000C
000C
FFFC
FFFC
ENDCHAR
STARTCHAR 0034
ENCODING 52
SWIDTH 771 0
DWIDTH 15 0
BBX 12 12 0 0
BITMAP
01E0
03F0
0730
0E30
1830
3030
6030
FFF0
FFF0
0030
0030
0030
ENDCHAR
STARTCHAR 0035
ENCODING 53
SWIDTH 874 0
DWIDTH 17 0
BBX 15 12 0 0
BITMAP
7FFC
FFFE
C000
C000
C000
FFF8
7FFC
003E
001E
000E
FFFE
FFFC
ENDCHAR
STARTCHAR 0036
ENCODING 54
SWIDTH 874 0
DWIDTH 17 0
BBX 14 12 0 0
BITMAP
7FF0
FFF0
C000
C000
C000
DFF8
FFFC
C00C
C00C
C00C
FFFC
7FFC
ENDCHAR
STARTCHAR 0037
ENCODING 55
SWIDTH 874 0
DWIDTH 17 0
BBX 14 12 0 0
BITMAP
FFF8
FFFC
000C
000C
000C
000C
000C
000C
000C
000C
000C
000C
ENDCHAR
STARTCHAR 0038
ENCODING 56
SWIDTH 874 0
DWIDTH 17 0
BBX 14 12 0 0
BITMAP
7FF8
FFFC
C00C
C00C
C00C
FFFC
FFFC
C00C
C00C
C00C
FFFC
7FFC
ENDCHAR
STARTCHAR 0039
ENCODING 57
SWIDTH 874 0
DWIDTH 17 0
BBX 14 12 0 0
BITMAP
7FF8
FFFC
C00C
C00C
C00C
FFFC
7FFC
000C
000C
000C
003C
0038
ENDCHAR
STARTCHAR 003A
ENCODING 58
SWIDTH 360 0
DWIDTH 7 0
BBX 5 14 0 0
BITMAP
70
F8
F8
F8
70
00
00
00
00
70
F8
F8
F8
70
ENDCHAR
STARTCHAR 003B
ENCODING 59
SWIDTH 360 0
DWIDTH 7 0
BBX 5 14 0 0
BITMAP
70
F8
F8
F8
70
00
00
00
00
F0
F8
18
18
10
ENDCHAR
STARTCHAR 003C
ENCODING 60
SWIDTH 617 0
DWIDTH 12 0
BBX 9 14 1 0
BITMAP
0300
0780
0F80
1F00
3E00
7C00
F800
F800
7C00
3E00
1F00
0F80
0780
0300
ENDCHAR
STARTCHAR 003D
ENCODING 61
SWIDTH 720 0
DWIDTH 14 0
BBX 12 7 0 2
BITMAP
FFF0
FFF0
0000
0000
0000
FFF0
FFF0
ENDCHAR
STARTCHAR 003E
ENCODING 62
SWIDTH 617 0
DWIDTH 12 0
BBX 9 14 0 0
BITMAP
6000
F000
F800
7C00
3E00
1F00
0F80
0F80
1F00
3E00
7C00
F800
F000
6000
ENDCHAR
STARTCHAR 003F
ENCODING 63
SWIDTH 771 0
DWIDTH 15 0
BBX 12 14 0 0
BITMAP
7FE0
FFF0
C030
C030
0030
03F0
07E0
0600
0600
0000
0000
0000
0600
0600
ENDCHAR
STARTCHAR 0040
ENCODING 64
SWIDTH 874 0
DWIDTH 17 0
BBX 14 14 0 0
BITMAP
7FFC
FFFC
C00C
C00C
DFEC
DFFC
FFFC
DFFC
DFFC
C000
C000
C000
FFFC
7FFC
ENDCHAR
STARTCHAR 0041
ENCODING 65
SWIDTH 874 0
DWIDTH 17 0
BBX 14 14 0 0
BITMAP
7FF8
FFFC
C00C
C00C
C00C
FFFC
DFFC
C00C
C00C
C00C
C00C
C00C
C00C
C00C
ENDCHAR
STARTCHAR 0042
ENCODING 66
SWIDTH 874 0
DWIDTH 17 0
BBX 14 14 0 0
BITMAP
7FF8
FFFC
C00C
C00C
C00C
FFFC
DFFC
C00C
C00C
C00C
C00C
C00C
FFFC
7FFC
ENDCHAR
STARTCHAR 0043
ENCODING 67
SWIDTH 874 0
DWIDTH 17 0
BBX 15 14 0 0
BITMAP
7FFC
FFFE
C000
C000
C000
C000
C000
C000
C000
C000
C000
C000
FFFE
7FFC
ENDCHAR
STARTCHAR 0044
ENCODING 68
SWIDTH 874 0
DWIDTH 17 0
BBX 14 14 0 0
BITMAP
FFF8
FFFC
C00C
C00C
C00C
C00C
C00C
C00C
C00C
C00C
C00C
C00C
FFFC
FFFC
ENDCHAR
STARTCHAR 0045
ENCODING 69
SWIDTH 874 0
DWIDTH 17 0
BBX 15 14 0 0
BITMAP
7FFC
FFFE
C000
C000
C000
DFFE
DFFE
C000
C000
C000
C000
C000
FFFE
7FFC
ENDCHAR
STARTCHAR 0046
ENCODING 70
SWIDTH 874 0
DWIDTH 17 0
BBX 15 14 0 0
BITMAP
7FFC
FFFE
C000
C000
C000
DFFE
DFFE
C000
C000
C000
C000
C000
C000
C000
ENDCHAR
STARTCHAR 0047
ENCODING 71
SWIDTH 874 0
DWIDTH 17 0
BBX 15 14 0 0
BITMAP
7FFC
FFFE
C000
C000
C000
C7FC
C7FC
C00C
C00C
C00C
C00C
C00C
FFFC
7FFC
ENDCHAR
STARTCHAR 0048
ENCODING 72
SWIDTH 874 0
DWIDTH 17 0
BBX 14 14 0 0
BITMAP
C00C
C00C
C00C
C00C
C00C
FFFC
DFFC
C00C
C00C
C00C
C00C
C00C
C00C
C00C
ENDCHAR
STARTCHAR 0049
ENCODING 73
SWIDTH 257 0
DWIDTH 5 0
BBX 2 14 0 0
BITMAP
C0
C0
C0
C0
C0
C0
C0
C0
C0
C0
C0
C0
C0
C0
ENDCHAR
STARTCHAR 004A
ENCODING 74
SWIDTH 822 0
DWIDTH 16 0
BBX 14 14 0 0
BITMAP
01FC
01FC
0030
0030
0030
0030
0030
0030
0030
4030
C030
C030
FFF0
7FE0
ENDCHAR
STARTCHAR 004B
ENCODING 75
SWIDTH 720 0
DWIDTH 14 0
BBX 12 14 0 0
BITMAP
C0C0
C0C0
C0C0
C0C0
FFF0
FFF0
C030
C030
C030
C030
C030
C030
C030
C030
ENDCHAR
STARTCHAR 004C
ENCODING 76
SWIDTH 874 0
DWIDTH 17 0
BBX 15 14 0 0
BITMAP
C000
C000
C000
C000
C000
C000
C000
C000
C000
C000
C000
C000
FFFE
7FFC
ENDCHAR
STARTCHAR 004D
ENCODING 77
SWIDTH 771 0
DWIDTH 15 0
BBX 12 14 0 0
BITMAP
7FE0
FFF0
C430
C630
C630
C630
C630
C630
C630
C030
C030
C030
C030
C030
ENDCHAR
STARTCHAR 004E
ENCODING 78
SWIDTH 720 0
DWIDTH 14 0
BBX 12 14 0 0
BITMAP
C030
C030
E030
F030
F830
DC30
CE30
C730
C3B0
C1F0
C0F0
C070
C030
C030
ENDCHAR
STARTCHAR 004F
ENCODING 79
SWIDTH 874 0
DWIDTH 17 0
BBX 14 14 0 0
BITMAP
7FF8
FFFC
C00C
C00C
C00C
C00C
C00C
C00C
C00C
C00C
C00C
C00C
FFFC
7FFC
ENDCHAR
STARTCHAR 0050
ENCODING 80
SWIDTH 874 0
DWIDTH 17 0
BBX 14 14 0 0
BITMAP
7FF8
FFFC
C00C
C00C
C00C
FFFC
FFFC
C000
C000
C000
C000
C000
C000
C000
ENDCHAR
STARTCHAR 0051
ENCODING 81
SWIDTH 874 0
DWIDTH 17 0
BBX 14 16 0 -2
BITMAP
7FF8
FFFC
C00C
C00C
C00C
C00C
C00C
C00C
C00C
C0CC
C0CC
C0CC
FEFC
7EFC
00C0
00C0
ENDCHAR
STARTCHAR 0052
ENCODING 82
SWIDTH 874 0
DWIDTH 17 0
BBX 14 14 0 0
BITMAP
7FF8
FFFC
C00C
C00C
C00C
FFFC
FFFC
C00C
C00C
C00C
C00C
C00C
C00C
C00C
ENDCHAR
STARTCHAR 0053
ENCODING 83
SWIDTH 874 0
DWIDTH 17 0
BBX 15 14 0 0
BITMAP
7FFC
FFFE
C000
C000
C000
FFFC
7FFC
000C
000C
000C
000C
000C
FFFC
FFFC
ENDCHAR
STARTCHAR 0054
ENCODING 84
SWIDTH 720 0
DWIDTH 14 0
BBX 12 14 0 0
BITMAP
FFF0
FFF0
0600
0600
0600
0600
0600
0600
0600
0600
0600
0600
0600
0600
ENDCHAR
STARTCHAR 0055
ENCODING 85
SWIDTH 874 0
DWIDTH 17 0
BBX 14 14 0 0
BITMAP
C00C
C00C
C00C
C00C
C00C
C00C
C00C
C00C
C00C
C00C
C00C
C00C
FFFC
7FFC
ENDCHAR
STARTCHAR 0056
ENCODING 86
SWIDTH 720 0
DWIDTH 14 0
BBX 12 14 0 0
BITMAP
C030
C030
C030
C030
C030
F030
7830
1830
1830
1830
1830
1830
1FF0
1FE0
ENDCHAR
STARTCHAR 0057
ENCODING 87
SWIDTH 771 0
DWIDTH 15 0
BBX 12 14 0 0
BITMAP
C030
C030
C030
C030
C030
C630
C630
C630
C630
C630
C630
C430
FFF0
7FE0
ENDCHAR
STARTCHAR 0058
ENCODING 88
SWIDTH 720 0
DWIDTH 14 0
BBX 12 14 0 0
BITMAP
C030
C030
C030
C030
C030
FFF0
FFF0
C030
C030
C030
C030
C030
C030
C030
ENDCHAR
STARTCHAR 0059
ENCODING 89
SWIDTH 771 0
DWIDTH 15 0
BBX 12 14 0 0
BITMAP
C030
C030
C030
C030
C030
FFF0
7FE0
0600
0600
0600
0600
0600
0600
0600
ENDCHAR
STARTCHAR 005A
ENCODING 90
SWIDTH 874 0
DWIDTH 17 0
BBX 15 14 0 0
BITMAP
FFFC
FFFE
003E
007C
00F8
01F0
03E0
0F80
1F00
3E00
7C00
F800
FFFE
7FFE
ENDCHAR
STARTCHAR 005B
ENCODING 91
SWIDTH 360 0
DWIDTH 7 0
BBX 5 17 0 0
BITMAP
78
F8
C0
C0
C0
C0
C0
C0
C0
C0
C0
C0
C0
C0
C0
F8
78
ENDCHAR
STARTCHAR 005C
ENCODING 92
SWIDTH 874 0
DWIDTH 17 0
BBX 14 14 0 0
BITMAP
6000
F000
F800
7C00
3E00
1F00
0F80
07C0
03E0
01F0
00F8
007C
001C
000C
ENDCHAR
STARTCHAR 005D
ENCODING 93
SWIDTH 411 0
DWIDTH 8 0
BBX 5 17 0 0
BITMAP
F0
F8
18
18
18
18
18
18
18
18
18
18
18
18
18
F8
F0
ENDCHAR
STARTCHAR 005F
ENCODING 95
SWIDTH 720 0
DWIDTH 14 0
BBX 12 2 0 0
BITMAP
FFF0
FFF0
ENDCHAR
STARTCHAR 0061
ENCODING 97
SWIDTH 874 0
DWIDTH 17 0
BBX 14 12 0 0
BITMAP
1FF8
3FFC
000C
000C
000C
7FFC
FFFC
C00C
C00C
C00C
FFFC
7FFC
ENDCHAR
STARTCHAR 0062
ENCODING 98
SWIDTH 874 0
DWIDTH 17 0
BBX 14 12 0 0
BITMAP
C000
C000
C000
C000
C000
DFF8
FFFC
C00C
C00C
C00C
FFFC
7FFC
ENDCHAR
STARTCHAR 0063
ENCODING 99
SWIDTH 874 0
DWIDTH 17 0
BBX 14 12 0 0
BITMAP
7FF8
FFFC
C00C
C00C
C00C
C000
C000
C00C
C00C
C00C
FFFC
7FFC
ENDCHAR
STARTCHAR 0064
ENCODING 100
SWIDTH 874 0
DWIDTH 17 0
BBX 14 12 0 0
BITMAP
000C
000C
000C
000C
000C
7FFC
FFFC
C00C
C00C
C00C
FFFC
7FFC
ENDCHAR
STARTCHAR 0065
ENCODING 101
SWIDTH 874 0
DWIDTH 17 0
BBX 15 12 0 0
BITMAP
7FF8
FFFC
C00C
C00C
C00C
DFFC
FFFC
C000
C000
C000
FFFE
7FFC
ENDCHAR
STARTCHAR 0066
ENCODING 102
SWIDTH 874 0
DWIDTH 17 0
BBX 15 12 0 0
BITMAP
7FFC
FFFE
C000
C000
C000
FFF0
FFF0
C000
C000
C000
C000
C000
ENDCHAR
STARTCHAR 0067
ENCODING 103
SWIDTH 874 0
DWIDTH 17 0
BBX 14 12 0 0
BITMAP
7FF8
FFFC
C00C
C00C
C00C
FFFC
7FFC
000C
000C
000C
FFFC
FFF8
ENDCHAR
STARTCHAR 0068
ENCODING 104
SWIDTH 874 0
DWIDTH 17 0
BBX 14 12 0 0
BITMAP
C000
C000
C000
C000
C000
DFF8
FFFC
C00C
C00C
C00C
C00C
C00C
ENDCHAR
STARTCHAR 0069
ENCODING 105
SWIDTH 462 0
DWIDTH 9 0
BBX 7 14 0 0
BITMAP
30
30
00
00
00
F0
F0
30
30
30
30
30
3E
1E
ENDCHAR
STARTCHAR 006A
ENCODING 106
SWIDTH 874 0
DWIDTH 17 0
BBX 14 14 0 0
BITMAP
000C
000C
0000
0000
0000
003C
003C
000C
000C
400C
C00C
C00C
FFFC
7FFC
ENDCHAR
STARTCHAR 006B
ENCODING 107
SWIDTH 720 0
DWIDTH 14 0
BBX 12 12 0 0
BITMAP
C030
C030
C030
C030
C030
FFF0
FFF0
C030
C030
C030
C030
C030
ENDCHAR
STARTCHAR 006C
ENCODING 108
SWIDTH 360 0
DWIDTH 7 0
BBX 4 14 0 0
BITMAP
E0
F0
30
30
30
30
30
30
30
30
30
30
30
30
ENDCHAR
STARTCHAR 006D
ENCODING 109
SWIDTH 771 0
DWIDTH 15 0
BBX 12 12 0 0
BITMAP
DFE0
DFF0
C630
C630
C630
C630
C630
C030
C030
C030
C030
C030
ENDCHAR
STARTCHAR 006E
ENCODING 110
SWIDTH 720 0
DWIDTH 14 0
BBX 12 12 0 0
BITMAP
DFE0
FFF0
C030
C030
C030
C030
C030
C030
C030
C030
C030
C030
ENDCHAR
STARTCHAR 006F
ENCODING 111
SWIDTH 874 0
DWIDTH 17 0
BBX 14 12 0 0
BITMAP
7FF8
FFFC
C00C
C00C
C00C
C00C
C00C
C00C
C00C
C00C
FFFC
7FFC
ENDCHAR
STARTCHAR 0070
ENCODING 112
SWIDTH 874 0
DWIDTH 17 0
BBX 14 12 0 0
BITMAP
7FF8
FFFC
C00C
C00C
C00C
DFFC
FFFC
C000
C000
C000
C000
C000
ENDCHAR
STARTCHAR 0071
ENCODING 113
SWIDTH 874 0
DWIDTH 17 0
BBX 14 12 0 0
BITMAP
7FF8
FFFC
C00C
C00C
C00C
FFFC
7FFC
000C
000C
000C
000C
000C
ENDCHAR
STARTCHAR 0072
ENCODING 114
SWIDTH 874 0
DWIDTH 17 0
BBX 14 12 0 0
BITMAP
7FF8
FFFC
C00C
C00C
C00C
C000
C000
C000
C000
C000
C000
C000
ENDCHAR
STARTCHAR 0073
ENCODING 115
SWIDTH 874 0
DWIDTH 17 0
BBX 15 12 0 0
BITMAP
7FFC
FFFE
C000
C000
C000
FFF8
7FFC
000C
000C
000C
FFFC
FFFC
ENDCHAR
STARTCHAR 0074
ENCODING 116
SWIDTH 874 0
DWIDTH 17 0
BBX 15 12 0 0
BITMAP
C000
C000
C000
FE00
FE00
C000
C000
C000
C000
C000
FFFE
7FFC
ENDCHAR
STARTCHAR 0075
ENCODING 117
SWIDTH 874 0
DWIDTH 17 0
BBX 14 12 0 0
BITMAP
C00C
C00C
C00C
C00C
C00C
C00C
C00C
C00C
C00C
C00C
FFFC
7FFC
ENDCHAR
STARTCHAR 0076
ENCODING 118
SWIDTH 720 0
DWIDTH 14 0
BBX 12 12 0 0
BITMAP
C030
C030
C030
C030
C030
F030
7830
1830
1830
1830
1FF0
1FE0
ENDCHAR
STARTCHAR 0077
ENCODING 119
SWIDTH 771 0
DWIDTH 15 0
BBX 12 12 0 0
BITMAP
C030
C030
C030
C030
C030
C630
C630
C630
C630
C630
FFF0
7FE0
ENDCHAR
STARTCHAR 0078
ENCODING 120
SWIDTH 720 0
DWIDTH 14 0
BBX 12 12 0 0
BITMAP
C030
C030
C030
C030
C030
FFF0
FFF0
C030
C030
C030
C030
C030
ENDCHAR
STARTCHAR 0079
ENCODING 121
SWIDTH 822 0
DWIDTH 16 0
BBX 15 12 -1 0
BITMAP
1806
1806
1806
1806
1806
1FF6
0FFE
0006
0006
0006
FFFE
7FFC
ENDCHAR
STARTCHAR 007A
ENCODING 122
SWIDTH 874 0
DWIDTH 17 0
BBX 15 12 0 0
BITMAP
FFFC
FFFE
003E
007C
00F8
0FF0
1FE0
3E00
7C00
F800
FFFE
7FFE
ENDCHAR
STARTCHAR 2018
ENCODING 8216
SWIDTH 257 0
DWIDTH 5 0
BBX 2 5 0 9
BITMAP
40
C0
C0
C0
40
ENDCHAR
STARTCHAR 2019
ENCODING 8217
SWIDTH 257 0
DWIDTH 5 0
BBX 2 5 0 9
BITMAP
80
C0
C0
C0
80
ENDCHAR
STARTCHAR 201C
ENCODING 8220
SWIDTH 514 0
DWIDTH 10 0
BBX 7 5 0 9
BITMAP
42
C6
C6
C6
42
ENDCHAR
STARTCHAR 201D
ENCODING 8221
SWIDTH 514 0
DWIDTH 10 0
BBX 7 5 0 9
BITMAP
84
C6
C6
C6
84
ENDCHAR
ENDFONT
